<?xml version="1.0" encoding="iso-8859-1"?>
<!-- Uploaded to: SVG Repo, www.svgrepo.com, Generator: SVG Repo Mixer Tools -->
<svg height="150px" width="150px" version="1.1" id="Layer_1" xmlns="http://www.w3.org/2000/svg" xmlns:xlink="http://www.w3.org/1999/xlink" 
	 viewBox="0 0 512.001 512.001" xml:space="preserve">
<path style="fill:#FFAB64;" d="M365.148,478.441H146.852c-37.989,0-74.203-38.145-99.683-66.324l0,0h417.663l0,0
	C439.353,440.295,403.139,478.441,365.148,478.441z"/>
<path style="fill:#00AE90;" d="M355.301,411.765H156.699c-38.999,0-70.614-31.614-70.614-70.614V176.386h339.829v164.766
	C425.914,380.151,394.3,411.765,355.301,411.765z"/>
<path d="M497.289,397.404h-32.457h-45.456c9.934-11.303,16.927-25.237,19.788-40.615h44.859c8.125,0,14.711-6.588,14.711-14.711
	v-91.724c0-8.124-6.586-14.711-14.711-14.711h-43.398v-59.257c0-8.124-6.586-14.711-14.711-14.711H86.084
	c-8.125,0-14.711,6.588-14.711,14.711v164.766c0,21.537,8.038,41.222,21.25,56.253H47.169H14.711C6.586,397.404,0,403.992,0,412.115
	s6.586,14.711,14.711,14.711h25.958c30.182,32.946,65.508,66.324,106.183,66.324H365.15c40.674,0,76.001-33.378,106.184-66.324
	h25.956c8.125,0,14.711-6.588,14.711-14.711S505.414,397.404,497.289,397.404z M469.312,327.367h-28.687v-62.302h28.687V327.367z
	 M100.797,191.097h310.406v44.546H211.094c-8.125,0-14.711,6.588-14.711,14.711s6.586,14.711,14.711,14.711h200.109v76.086
	c0,30.824-25.078,55.903-55.903,55.903H156.699c-30.824,0-55.903-25.078-55.903-55.903V191.097z M365.148,463.728H146.852
	c-22.49,0-46.348-18.371-65.437-36.902h349.173C411.497,445.357,387.64,463.728,365.148,463.728z"/>
<path d="M166.968,265.064c-0.971,0-1.927-0.09-2.883-0.28c-0.942-0.191-1.868-0.471-2.751-0.839
	c-0.883-0.368-1.736-0.824-2.545-1.353c-0.794-0.544-1.559-1.162-2.236-1.839c-0.677-0.677-1.295-1.427-1.824-2.236
	c-0.53-0.794-0.986-1.648-1.353-2.53c-0.368-0.897-0.647-1.824-0.839-2.767c-0.191-0.942-0.294-1.912-0.294-2.867
	c0-0.956,0.103-1.929,0.294-2.869c0.191-0.943,0.471-1.87,0.839-2.751c0.368-0.897,0.824-1.751,1.353-2.545
	c0.53-0.809,1.147-1.559,1.824-2.236c0.677-0.677,1.442-1.295,2.236-1.824c0.809-0.528,1.662-0.986,2.545-1.353
	c0.883-0.368,1.809-0.662,2.751-0.839c1.898-0.382,3.854-0.382,5.752,0c0.942,0.177,1.868,0.471,2.751,0.839
	c0.883,0.368,1.736,0.825,2.545,1.353c0.794,0.53,1.559,1.147,2.236,1.824s1.295,1.427,1.824,2.236
	c0.53,0.794,0.986,1.648,1.353,2.545c0.368,0.883,0.647,1.808,0.839,2.751c0.191,0.942,0.294,1.912,0.294,2.869
	c0,0.955-0.103,1.927-0.294,2.867c-0.191,0.943-0.471,1.87-0.839,2.767c-0.368,0.883-0.824,1.736-1.353,2.53
	c-0.53,0.809-1.147,1.559-1.824,2.236s-1.442,1.295-2.236,1.839c-0.809,0.53-1.662,0.986-2.545,1.353
	c-0.883,0.368-1.809,0.647-2.751,0.839C168.88,264.975,167.924,265.064,166.968,265.064z"/>
<path d="M250.778,121.028c-2.599,0-5.231-0.69-7.616-2.136c-6.947-4.213-9.162-13.262-4.947-20.207
	c11.082-18.268,11.082-39.222,0-57.49c-4.213-6.947-1.999-15.994,4.947-20.207c6.942-4.215,15.993-2.001,20.207,4.947
	c16.716,27.554,16.716,60.456,0,88.01C260.602,118.505,255.75,121.028,250.778,121.028z"/>
<path d="M310.214,124.304c-2.599,0-5.231-0.688-7.616-2.135c-6.947-4.213-9.162-13.262-4.947-20.207
	c7.292-12.021,7.292-25.806,0-37.824c-4.215-6.948-1.999-15.994,4.946-20.209c6.942-4.215,15.993-1.999,20.207,4.946
	c12.983,21.397,12.983,46.948,0,68.347C320.038,121.782,315.186,124.304,310.214,124.304z"/>
<path d="M194.157,124.305c-2.599,0-5.231-0.69-7.616-2.136c-6.947-4.213-9.162-13.262-4.947-20.207
	c7.291-12.021,7.292-25.806,0-37.825c-4.213-6.947-1.999-15.994,4.947-20.207c6.945-4.215,15.994-2.001,20.209,4.947
	c12.981,21.397,12.981,46.946,0,68.345C203.981,121.782,199.128,124.305,194.157,124.305z"/>
</svg>