<?xml version="1.0" encoding="iso-8859-1"?>
<!-- Uploaded to: SVG Repo, www.svgrepo.com, Generator: SVG Repo Mixer Tools -->
<svg height="150px" width="150px" version="1.1" id="Layer_1" xmlns="http://www.w3.org/2000/svg" xmlns:xlink="http://www.w3.org/1999/xlink" 
	 viewBox="0 0 512 512" xml:space="preserve">
<path style="fill:#81CCB5;" d="M322.31,483.371H163.8c-42.373,0-82.767-17.933-111.187-49.365l0,0h380.884l0,0
	C405.079,465.438,364.685,483.371,322.31,483.371z"/>
<path style="fill:#FFAB64;" d="M243.055,429.597L243.055,429.597c-97.509,0-176.556-79.047-176.556-176.556v-91.254h353.112v91.254
	C419.611,350.55,340.564,429.597,243.055,429.597z"/>
<path style="fill:#FFCAAB;" d="M397.692,161.788c0.717-3.799,1.108-7.712,1.108-11.718c0-34.684-28.117-62.8-62.801-62.8
	c-5.151,0-10.156,0.625-14.945,1.798c-2.1,0.514-6.884-1.807-7.336-3.597c-8.255-32.664-37.818-56.842-73.046-56.842
	c-35.681,0-65.557,24.802-73.361,58.103c-0.215,0.919-2.342,2.317-3.224,2.115c-4.494-1.026-9.171-1.577-13.976-1.577
	c-34.684,0-62.801,28.117-62.801,62.801c0,4.005,0.391,7.919,1.108,11.718L397.692,161.788L397.692,161.788z"/>
<path d="M430.682,298.155c45.663-4.988,81.318-43.771,81.318-90.74v-45.627c0-9.061-7.346-16.409-16.409-16.409h-74.887
	c-0.184,0-0.363,0.021-0.546,0.028c-0.184-0.005-0.363-0.028-0.546-0.028h-4.552c-2.437-41.5-36.958-74.518-79.059-74.518
	c-3.185,0-6.365,0.192-9.517,0.573c-13.35-35.335-47.274-59.213-85.809-59.213c-38.602,0-72.252,23.631-85.67,58.793
	c-1.629-0.102-3.26-0.153-4.892-0.153c-42.101,0-76.622,33.018-79.059,74.518h-4.552c-9.063,0-16.409,7.348-16.409,16.409v91.254
	c0,69.533,36.974,130.589,92.289,164.556h-89.77H16.409C7.346,417.597,0,424.945,0,434.006s7.346,16.409,16.409,16.409h29.16
	c31.128,31.454,73.795,49.365,118.23,49.365H322.31c44.436,0,87.102-17.91,118.23-49.365h29.16c9.063,0,16.409-7.348,16.409-16.409
	c0-9.061-7.346-16.409-16.409-16.409h-36.203h-89.767C386.691,391.218,418.577,348.496,430.682,298.155z M322.31,466.964H163.8
	c-22.69,0-44.808-5.815-64.333-16.547h287.175C367.118,461.149,345.001,466.964,322.31,466.964z M479.182,207.415
	c0,27.058-18.478,49.877-43.476,56.518c0.202-3.605,0.313-7.235,0.313-10.891v-74.845h43.162V207.415z M150.111,103.679
	c3.461,0,6.936,0.392,10.321,1.165c9.68,2.215,20.572-4.636,22.856-14.368c6.27-26.755,29.868-45.438,57.386-45.438
	c27.026,0,50.522,18.281,57.138,44.46c2.924,11.547,17.236,17.93,27.147,15.508c3.595-0.88,7.31-1.327,11.042-1.327
	c23.998,0,43.797,18.314,46.155,41.7h-278.2C106.314,121.993,126.113,103.679,150.111,103.679z M243.057,413.188L243.057,413.188
	c-88.305,0-160.147-71.84-160.147-160.147v-74.845h5.51h309.273h5.51v74.845c0,4.325-0.179,8.61-0.517,12.85h-216.33
	c-9.063,0-16.409,7.348-16.409,16.409s7.346,16.409,16.409,16.409h210.199C376.849,364.834,315.499,413.188,243.057,413.188z"/>
<path d="M137.133,298.713c-1.067,0-2.15-0.113-3.216-0.327c-1.034-0.213-2.068-0.525-3.068-0.935
	c-0.985-0.41-1.936-0.919-2.822-1.51c-0.903-0.591-1.739-1.28-2.494-2.035c-0.755-0.755-1.444-1.592-2.051-2.494
	c-0.591-0.886-1.099-1.838-1.51-2.839c-0.41-0.985-0.722-2.017-0.935-3.068c-0.213-1.05-0.312-2.133-0.312-3.2
	c0-1.065,0.098-2.15,0.312-3.216c0.213-1.034,0.525-2.068,0.935-3.067c0.41-0.986,0.919-1.938,1.51-2.824
	c0.607-0.903,1.296-1.739,2.051-2.494c3.807-3.823,9.468-5.579,14.801-4.496c1.05,0.213,2.084,0.525,3.068,0.935
	c1.001,0.41,1.953,0.919,2.839,1.51c0.902,0.607,1.739,1.296,2.494,2.051c0.755,0.755,1.444,1.592,2.035,2.494
	c0.591,0.886,1.099,1.838,1.51,2.824c0.41,0.999,0.722,2.033,0.935,3.067c0.213,1.067,0.328,2.151,0.328,3.216
	c0,1.067-0.115,2.151-0.328,3.2c-0.213,1.052-0.525,2.086-0.935,3.068c-0.41,1.001-0.919,1.953-1.51,2.839
	c-0.591,0.902-1.28,1.739-2.035,2.494c-0.755,0.755-1.592,1.444-2.494,2.035c-0.886,0.591-1.838,1.099-2.839,1.51
	c-0.985,0.41-2.018,0.722-3.068,0.935C139.283,298.599,138.2,298.713,137.133,298.713z"/>
</svg>