<?xml version="1.0" encoding="UTF-8" standalone="no"?>
<!-- Uploaded to: SVG Repo, www.svgrepo.com, Generator: SVG Repo Mixer Tools -->

<svg
   height="150px"
   width="150px"
   version="1.1"
   id="Layer_1"
   viewBox="0 0 512 512"
   xml:space="preserve"
   sodipodi:docname="espresso.svg"
   inkscape:version="1.3 (0e150ed6c4, 2023-07-21)"
   xmlns:inkscape="http://www.inkscape.org/namespaces/inkscape"
   xmlns:sodipodi="http://sodipodi.sourceforge.net/DTD/sodipodi-0.dtd"
   xmlns="http://www.w3.org/2000/svg"
   xmlns:svg="http://www.w3.org/2000/svg"><defs
   id="defs5" /><sodipodi:namedview
   id="namedview5"
   pagecolor="#ffffff"
   bordercolor="#000000"
   borderopacity="0.25"
   inkscape:showpageshadow="2"
   inkscape:pageopacity="0.0"
   inkscape:pagecheckerboard="0"
   inkscape:deskcolor="#d1d1d1"
   showguides="true"
   inkscape:zoom="4"
   inkscape:cx="28.625"
   inkscape:cy="64.375"
   inkscape:window-width="2560"
   inkscape:window-height="1301"
   inkscape:window-x="0"
   inkscape:window-y="27"
   inkscape:window-maximized="1"
   inkscape:current-layer="Layer_1"><sodipodi:guide
     position="-21.044936,393.95106"
     orientation="0,-1"
     id="guide5"
     inkscape:locked="false" /></sodipodi:namedview>&#10;<path
   style="fill:#ffab64;fill-opacity:0.00599177"
   d="m 207.694,239.13 c 14.48027,0 24.61911,2.39207 33.01975,5.74185 19.61859,7.82295 29.75722,20.86915 63.57325,20.86915 48.3,0 48.3,-26.611 96.599,-26.611 2.936,0 5.687,0.102 8.289,0.287 l 9.146,-102.734 H 93.68 l 11.824,128.916 c 1.801,0.084 3.647,0.142 5.599,0.142 48.295,-0.002 48.295,-26.611 96.591,-26.611 z"
   id="path1"
   sodipodi:nodetypes="sssscccccs" />&#10;&#10;<path
   style="fill:#C97767;"
   d="M400.886,239.13c-48.3,0-48.3,26.611-96.599,26.611c-48.297,0-48.297-26.611-96.593-26.611  c-48.295,0-48.295,26.611-96.592,26.611c-1.952,0-3.798-0.058-5.599-0.142l28.091,231.901h244.811l30.768-258.084  C406.573,239.231,403.822,239.13,400.886,239.13z"
   id="path3" />&#10;<path
   id="path4"
   d="M 437.34998,118.04894 H 74.752004 c -0.04062,0 29.062806,254.19205 44.447996,381.19106 0.882,7.28097 7.05936,12.76 14.39333,12.76 h 244.81334 c 7.34297,0 13.52333,-5.49367 14.39333,-12.78667 15.89165,-126.93796 44.54998,-381.16439 44.54998,-381.16439 z m -327.77665,33.12439 h 292.9 l -6.54666,73.53334 c -0.019,0 -0.041,-0.002 -0.06,0 -0.358,0.024 -0.69267,0.0573 -1.04667,0.0733 -1.222,0.055 -2.433,0.113 -3.6,0.2 -0.55,0.041 -1.06667,0.0997 -1.60667,0.14667 -0.937,0.083 -1.88366,0.157 -2.78666,0.26 -0.574,0.064 -1.119,0.149 -1.68,0.22 -0.827,0.107 -1.661,0.21133 -2.46,0.33333 -0.568,0.087 -1.11067,0.185 -1.66667,0.28 -0.755,0.129 -1.51567,0.258 -2.24667,0.4 -0.548,0.107 -1.07833,0.227 -1.61333,0.34 -0.702,0.149 -1.4,0.299 -2.08,0.46 -0.525,0.125 -1.03467,0.25467 -1.54667,0.38667 -0.657,0.168 -1.31066,0.33533 -1.94666,0.51333 -0.499,0.139 -0.993,0.28067 -1.48,0.42667 -0.622,0.186 -1.237,0.37933 -1.84,0.57333 -0.473,0.152 -0.937,0.303 -1.4,0.46 -0.592,0.202 -1.17167,0.411 -1.74667,0.62 -0.445,0.162 -0.89167,0.32733 -1.32667,0.49333 -0.566,0.216 -1.12233,0.43134 -1.67333,0.65334 -0.422,0.17 -0.84133,0.33933 -1.25333,0.51333 -0.545,0.229 -1.07567,0.467 -1.60667,0.7 -0.394,0.174 -0.791,0.343 -1.18,0.52 -0.535,0.244 -1.057,0.492 -1.58,0.74 -0.364,0.174 -0.73533,0.344 -1.09333,0.52 -0.534,0.261 -1.058,0.52933 -1.58,0.79333 -0.331,0.167 -0.66734,0.32534 -0.99334,0.49334 -0.548,0.281 -1.084,0.56933 -1.62,0.85333 -0.287,0.151 -0.58266,0.30133 -0.86666,0.45333 -0.596,0.319 -1.18267,0.63634 -1.76667,0.95334 -0.217,0.117 -0.43733,0.23533 -0.65333,0.35333 -0.787,0.431 -1.568,0.86067 -2.34,1.28667 -11.20597,6.17297 -20.88206,11.50666 -41.3,11.50666 -20.41794,0 -30.09503,-5.33369 -41.3,-11.50666 -12.84897,-7.079 -27.4144,-15.1 -55.29334,-15.1 -27.87891,0 -42.44436,8.021 -55.29333,15.1 -0.644,0.355 -1.27733,0.70533 -1.91333,1.05333 -0.189,0.103 -0.37767,0.20367 -0.56667,0.30667 -0.468,0.255 -0.933,0.511 -1.4,0.76 -0.229,0.123 -0.45767,0.24566 -0.68667,0.36666 -0.423,0.225 -0.84833,0.44667 -1.27333,0.66667 -0.249,0.129 -0.49767,0.253 -0.74667,0.38 -0.412,0.21 -0.83066,0.42067 -1.24666,0.62667 -0.252,0.125 -0.506,0.25133 -0.76,0.37333 -0.432,0.21 -0.86867,0.41033 -1.30667,0.61333 -0.236,0.11 -0.46867,0.22634 -0.70667,0.33334 -0.526,0.238 -1.062,0.46633 -1.6,0.69333 -0.154,0.064 -0.305,0.136 -0.46,0.2 -0.697,0.29 -1.40466,0.569 -2.12666,0.84 -0.154,0.058 -0.31167,0.11067 -0.46667,0.16667 -0.567,0.209 -1.14267,0.41733 -1.72667,0.61333 -0.257,0.086 -0.519,0.16467 -0.78,0.24667 -0.499,0.16 -1.00033,0.31766 -1.51333,0.46666 -0.297,0.087 -0.60367,0.16467 -0.90667,0.24667 -0.499,0.138 -1.005,0.273 -1.52,0.4 -0.318,0.08 -0.635,0.15833 -0.96,0.23333 -0.529,0.122 -1.074,0.23567 -1.62,0.34667 -0.323,0.067 -0.64333,0.137 -0.97333,0.2 -0.608,0.116 -1.23567,0.217 -1.86667,0.32 -0.287,0.046 -0.567,0.096 -0.86,0.14 -1.79197,0.267 -3.68733,0.47467 -5.69333,0.62667 l 9.33996,84.45754 118.53129,-8.4e-4 c 8.007,-6e-5 14.5,-6.49201 14.5,-14.5 0,-8.00797 -6.492,-14.50006 -14.5,-14.5 l -121.19129,8.4e-4 z M 207.7,253.62667 c 20.41694,0 30.09503,5.33369 41.3,11.50666 12.84897,7.079 27.41342,15.1 55.29333,15.1 27.88094,0 42.44337,-8.021 55.29334,-15.1 0.641,-0.352 1.27366,-0.70066 1.90666,-1.04666 0.193,-0.106 0.387,-0.20934 0.58,-0.31334 0.458,-0.249 0.91634,-0.50166 1.37334,-0.74666 0.241,-0.129 0.479,-0.253 0.72,-0.38 0.407,-0.216 0.81766,-0.43467 1.22666,-0.64667 0.26,-0.135 0.519,-0.267 0.78,-0.4 0.4,-0.204 0.80467,-0.40667 1.20667,-0.60667 0.261,-0.129 0.518,-0.25866 0.78,-0.38666 0.431,-0.209 0.863,-0.41234 1.3,-0.61334 0.235,-0.109 0.46967,-0.21866 0.70667,-0.32666 0.605,-0.273 1.221,-0.541 1.84,-0.8 0.071,-0.03 0.13566,-0.0633 0.20666,-0.0933 0.683,-0.284 1.37967,-0.55966 2.08667,-0.82666 0.232,-0.087 0.47167,-0.16834 0.70667,-0.25334 0.487,-0.177 0.979,-0.351 1.48,-0.52 0.287,-0.096 0.57466,-0.188 0.86666,-0.28 0.465,-0.149 0.942,-0.299 1.42,-0.44 0.315,-0.091 0.63234,-0.17666 0.95334,-0.26666 0.481,-0.132 0.97166,-0.26267 1.46666,-0.38667 0.326,-0.081 0.646,-0.163 0.98,-0.24 0.532,-0.123 1.08234,-0.24033 1.63334,-0.35333 0.312,-0.064 0.621,-0.13234 0.94,-0.19334 0.724,-0.138 1.46866,-0.261 2.22666,-0.38 0.161,-0.025 0.31134,-0.055 0.47334,-0.08 0.914,-0.136 1.853,-0.25966 2.82,-0.36666 0.331,-0.036 0.683,-0.066 1.02,-0.1 0.512,-0.051 1.032,-0.098 1.56,-0.14 L 365.52667,483 h -219.08 L 121.83333,279.81333 c 1.008,-0.084 1.97767,-0.193 2.94667,-0.3 0.252,-0.028 0.51667,-0.0443 0.76667,-0.0733 1.372,-0.16 2.702,-0.34467 4,-0.54667 0.328,-0.051 0.64366,-0.107 0.96666,-0.16 0.953,-0.158 1.89367,-0.32666 2.80667,-0.50666 0.438,-0.086 0.86233,-0.17667 1.29333,-0.26667 0.773,-0.164 1.53967,-0.32967 2.28667,-0.50667 0.448,-0.106 0.88667,-0.22133 1.32667,-0.33333 0.708,-0.18 1.40166,-0.36233 2.08666,-0.55333 0.423,-0.117 0.845,-0.238 1.26,-0.36 0.692,-0.204 1.371,-0.41267 2.04,-0.62667 0.371,-0.12 0.74734,-0.236 1.11334,-0.36 0.75,-0.251 1.476,-0.50933 2.2,-0.77333 0.258,-0.094 0.525,-0.184 0.78,-0.28 0.97,-0.364 1.91966,-0.74367 2.84666,-1.12667 0.167,-0.07 0.32834,-0.13667 0.49334,-0.20667 0.755,-0.318 1.50333,-0.63866 2.23333,-0.96666 0.31,-0.139 0.614,-0.28567 0.92,-0.42667 0.576,-0.265 1.14567,-0.531 1.70667,-0.8 0.328,-0.158 0.64833,-0.31333 0.97333,-0.47333 0.529,-0.26 1.05633,-0.516 1.57333,-0.78 0.32,-0.162 0.63734,-0.33034 0.95334,-0.49334 0.518,-0.268 1.031,-0.532 1.54,-0.8 0.294,-0.155 0.589,-0.31633 0.88,-0.47333 0.551,-0.296 1.097,-0.585 1.64,-0.88 0.236,-0.129 0.47833,-0.25867 0.71333,-0.38667 0.747,-0.409 1.486,-0.815 2.22,-1.22 10.50597,-5.78697 19.66539,-10.83866 37.59333,-11.44666 1.195,-0.041 2.43067,-0.06 3.70667,-0.06 z"
   sodipodi:nodetypes="cccsscccccccsccccscccccccccssccccccccscccscsccsccccccccccccccccccccccccsssccscscccccccccccccccccccccscccccccccccscccccccccccccccccccccccccss" />&#10;<path
   d="m 298.7078,335.40246 c -0.957,0 -1.913,-0.102 -2.842,-0.29 -0.928,-0.174 -1.842,-0.464 -2.712,-0.827 -0.87,-0.363 -1.711,-0.812 -2.507,-1.334 -0.783,-0.521 -1.539,-1.131 -2.206,-1.798 -0.667,-0.667 -1.276,-1.407 -1.797,-2.204 -0.522,-0.783 -0.972,-1.624 -1.334,-2.509 -0.363,-0.87 -0.638,-1.782 -0.827,-2.71 -0.189,-0.93 -0.276,-1.887 -0.276,-2.828 0,-0.943 0.088,-1.901 0.276,-2.828 0.187,-0.927 0.464,-1.843 0.827,-2.712 0.363,-0.885 0.812,-1.724 1.334,-2.507 0.521,-0.799 1.13,-1.539 1.797,-2.206 0.667,-0.667 1.421,-1.276 2.206,-1.798 0.798,-0.521 1.639,-0.972 2.507,-1.334 0.871,-0.363 1.784,-0.653 2.712,-0.841 1.871,-0.363 3.799,-0.363 5.67,0 0.928,0.189 1.843,0.479 2.712,0.841 0.869,0.363 1.711,0.813 2.509,1.334 0.782,0.522 1.537,1.131 2.204,1.798 2.697,2.697 4.234,6.438 4.234,10.252 0,0.941 -0.087,1.9 -0.274,2.828 -0.19,0.928 -0.464,1.842 -0.827,2.71 -0.363,0.885 -0.814,1.726 -1.334,2.509 -0.522,0.798 -1.131,1.537 -1.798,2.204 -0.667,0.667 -1.421,1.278 -2.204,1.798 -0.799,0.522 -1.64,0.972 -2.509,1.334 -0.869,0.363 -1.784,0.653 -2.712,0.827 -0.942,0.189 -1.885,0.291 -2.829,0.291 z"
   id="path5" />&#10;</svg>
