<?xml version="1.0" encoding="iso-8859-1"?>
<!-- Uploaded to: SVG Repo, www.svgrepo.com, Generator: SVG Repo Mixer Tools -->
<svg height="150px" width="150px" version="1.1" id="Layer_1" xmlns="http://www.w3.org/2000/svg" xmlns:xlink="http://www.w3.org/1999/xlink" 
	 viewBox="0 0 512 512" xml:space="preserve">
<path style="fill:#FFAB64;" d="M207.694,239.13c48.297,0,48.297,26.611,96.593,26.611c48.3,0,48.3-26.611,96.599-26.611
	c2.936,0,5.687,0.102,8.289,0.287l9.146-102.734H93.68l11.824,128.916c1.801,0.084,3.647,0.142,5.599,0.142
	C159.398,265.739,159.398,239.13,207.694,239.13z"/>
<path style="fill:#FFCAAB;" d="M417.366,136.681c-1.934-34.224-30.291-61.381-64.999-61.381c-5.341,0-10.529,0.648-15.496,1.863
	c-2.178,0.534-7.136-1.872-7.606-3.73c-8.56-33.865-39.21-58.933-75.735-58.933c-36.995,0-67.971,25.714-76.063,60.241
	c-0.223,0.953-2.427,2.403-3.344,2.193c-4.661-1.063-9.508-1.634-14.491-1.634c-34.708,0-63.063,27.157-64.999,61.381H417.366z"/>
<path style="fill:#C97767;" d="M400.886,239.13c-48.3,0-48.3,26.611-96.599,26.611c-48.297,0-48.297-26.611-96.593-26.611
	c-48.295,0-48.295,26.611-96.592,26.611c-1.952,0-3.798-0.058-5.599-0.142l28.091,231.901h244.811l30.768-258.084
	C406.573,239.231,403.822,239.13,400.886,239.13z"/>
<path d="M431.306,130.263c-5.012-39.374-38.645-69.462-78.938-69.462c-3.866,0-7.723,0.28-11.535,0.835
	C327.861,24.947,293.104,0,253.531,0c-39.596,0-74.03,24.631-87.124,61.091c-2.253-0.194-4.514-0.29-6.773-0.29
	c-40.295,0-73.928,30.089-78.94,69.465c-1.175,2.377-1.701,5.048-1.454,7.739l11.824,128.916c0.007,0.077,0.023,0.149,0.03,0.225
	c0.007,0.065,0.004,0.129,0.013,0.194l28.091,231.902c0.882,7.281,7.062,12.758,14.396,12.758h244.81
	c7.343,0,13.529-5.491,14.399-12.784l30.769-258.084c0.009-0.068,0.007-0.138,0.014-0.207c0.007-0.075,0.025-0.148,0.03-0.223
	l9.147-102.736C433.002,135.286,432.476,132.628,431.306,130.263z M394.823,224.777c-1.222,0.055-2.435,0.115-3.602,0.202
	c-0.55,0.041-1.07,0.099-1.61,0.146c-0.937,0.083-1.878,0.162-2.781,0.265c-0.574,0.064-1.124,0.145-1.685,0.216
	c-0.827,0.107-1.657,0.212-2.456,0.334c-0.568,0.087-1.115,0.186-1.671,0.281c-0.755,0.129-1.511,0.258-2.242,0.4
	c-0.548,0.107-1.079,0.223-1.614,0.336c-0.702,0.149-1.402,0.3-2.082,0.461c-0.525,0.125-1.037,0.255-1.549,0.387
	c-0.657,0.168-1.311,0.338-1.947,0.516c-0.499,0.139-0.989,0.283-1.476,0.429c-0.622,0.186-1.237,0.374-1.84,0.568
	c-0.473,0.152-0.938,0.307-1.401,0.464c-0.592,0.202-1.175,0.407-1.75,0.616c-0.445,0.162-0.887,0.326-1.322,0.492
	c-0.566,0.216-1.122,0.436-1.673,0.658c-0.422,0.17-0.842,0.339-1.254,0.513c-0.545,0.229-1.079,0.463-1.61,0.696
	c-0.394,0.174-0.79,0.348-1.179,0.525c-0.535,0.244-1.059,0.492-1.582,0.74c-0.364,0.174-0.732,0.345-1.09,0.521
	c-0.534,0.261-1.057,0.523-1.579,0.787c-0.331,0.167-0.666,0.332-0.992,0.5c-0.548,0.281-1.088,0.566-1.624,0.85
	c-0.287,0.151-0.579,0.302-0.863,0.454c-0.596,0.319-1.182,0.637-1.766,0.954c-0.217,0.117-0.438,0.236-0.654,0.354
	c-0.787,0.431-1.568,0.86-2.34,1.286c-11.206,6.173-20.883,11.505-41.301,11.505s-30.095-5.332-41.3-11.505
	c-12.849-7.079-27.414-15.104-55.293-15.104s-42.444,8.025-55.293,15.104c-0.644,0.355-1.282,0.706-1.918,1.054
	c-0.189,0.103-0.374,0.203-0.563,0.306c-0.468,0.255-0.935,0.509-1.402,0.758c-0.229,0.123-0.458,0.244-0.687,0.365
	c-0.423,0.225-0.848,0.448-1.273,0.668c-0.249,0.129-0.499,0.257-0.748,0.384c-0.412,0.21-0.827,0.418-1.243,0.624
	c-0.252,0.125-0.506,0.251-0.76,0.373c-0.432,0.21-0.869,0.413-1.307,0.616c-0.236,0.11-0.473,0.222-0.711,0.329
	c-0.526,0.238-1.06,0.47-1.598,0.697c-0.154,0.064-0.303,0.133-0.458,0.197c-0.697,0.29-1.405,0.571-2.127,0.842
	c-0.154,0.058-0.313,0.112-0.468,0.168c-0.567,0.209-1.14,0.412-1.724,0.608c-0.257,0.086-0.521,0.167-0.782,0.249
	c-0.499,0.16-1.001,0.316-1.514,0.465c-0.297,0.087-0.6,0.17-0.903,0.252c-0.499,0.138-1.005,0.27-1.52,0.397
	c-0.318,0.08-0.639,0.157-0.964,0.232c-0.529,0.122-1.072,0.238-1.618,0.349c-0.323,0.067-0.644,0.133-0.974,0.196
	c-0.608,0.116-1.234,0.219-1.865,0.322c-0.287,0.046-0.567,0.097-0.86,0.141c-1.792,0.267-3.689,0.474-5.695,0.626l-4.192-45.71
	h166.084c8.007,0,14.501-6.493,14.501-14.501s-6.493-14.501-14.501-14.501H111.87l-2.298-25.062h292.9l-6.547,73.534
	c-0.019,0-0.038,0.001-0.057,0.003C395.51,224.733,395.177,224.761,394.823,224.777z M159.633,89.803
	c3.779,0,7.569,0.428,11.258,1.269c8.622,1.969,18.676-4.365,20.694-13.02c6.768-28.88,32.24-49.049,61.945-49.049
	c29.174,0,54.536,19.731,61.675,47.981c2.615,10.361,16.008,16.503,25.114,14.267c3.921-0.96,7.974-1.447,12.047-1.447
	c21.421,0,39.889,13.367,47.225,32.378H112.408C119.744,103.169,138.213,89.803,159.633,89.803z M365.53,482.998H146.445
	l-24.612-203.186c1.008-0.084,1.978-0.189,2.947-0.296c0.252-0.028,0.519-0.048,0.769-0.077c1.372-0.16,2.703-0.342,4.001-0.544
	c0.328-0.051,0.638-0.112,0.961-0.165c0.953-0.158,1.894-0.322,2.807-0.502c0.438-0.086,0.861-0.18,1.292-0.27
	c0.773-0.164,1.54-0.331,2.287-0.508c0.448-0.106,0.887-0.216,1.327-0.328c0.708-0.18,1.405-0.364,2.09-0.555
	c0.423-0.117,0.845-0.236,1.26-0.358c0.692-0.204,1.367-0.415,2.036-0.629c0.371-0.12,0.748-0.236,1.114-0.36
	c0.75-0.251,1.479-0.512,2.203-0.776c0.258-0.094,0.525-0.184,0.78-0.28c0.97-0.364,1.92-0.738,2.847-1.121
	c0.167-0.07,0.328-0.142,0.493-0.212c0.755-0.318,1.502-0.638,2.232-0.966c0.31-0.139,0.612-0.281,0.918-0.422
	c0.576-0.265,1.147-0.531,1.708-0.8c0.328-0.158,0.651-0.316,0.976-0.476c0.529-0.26,1.053-0.519,1.57-0.783
	c0.32-0.162,0.641-0.326,0.957-0.489c0.518-0.268,1.03-0.537,1.539-0.805c0.294-0.155,0.589-0.31,0.88-0.467
	c0.551-0.296,1.096-0.59,1.639-0.885c0.236-0.129,0.476-0.258,0.711-0.386c0.747-0.409,1.488-0.816,2.222-1.221
	c10.506-5.787,19.666-10.835,37.594-11.443c1.195-0.041,2.429-0.061,3.705-0.061c20.417,0,30.094,5.332,41.299,11.505
	c12.849,7.079,27.415,15.104,55.295,15.104c27.881,0,42.446-8.025,55.296-15.104c0.641-0.352,1.275-0.702,1.908-1.048
	c0.193-0.106,0.384-0.209,0.577-0.313c0.458-0.249,0.915-0.497,1.372-0.742c0.241-0.129,0.481-0.257,0.722-0.384
	c0.407-0.216,0.816-0.432,1.225-0.644c0.26-0.135,0.522-0.27,0.783-0.403c0.4-0.204,0.802-0.405,1.204-0.605
	c0.261-0.129,0.521-0.258,0.783-0.386c0.431-0.209,0.864-0.412,1.301-0.613c0.235-0.109,0.468-0.22,0.705-0.328
	c0.605-0.273,1.217-0.541,1.836-0.8c0.071-0.03,0.139-0.061,0.21-0.091c0.683-0.284,1.38-0.56,2.087-0.827
	c0.232-0.087,0.47-0.17,0.705-0.255c0.487-0.177,0.977-0.352,1.478-0.521c0.287-0.096,0.58-0.189,0.872-0.281
	c0.465-0.149,0.937-0.294,1.415-0.435c0.315-0.091,0.632-0.181,0.953-0.271c0.481-0.132,0.972-0.26,1.467-0.384
	c0.326-0.081,0.651-0.164,0.985-0.241c0.532-0.123,1.08-0.239,1.631-0.352c0.312-0.064,0.618-0.132,0.937-0.193
	c0.724-0.138,1.469-0.265,2.227-0.384c0.161-0.025,0.312-0.055,0.474-0.08c0.914-0.136,1.858-0.258,2.825-0.365
	c0.331-0.036,0.677-0.065,1.014-0.099c0.512-0.051,1.032-0.097,1.56-0.139L365.53,482.998z"/>
<path d="M324.124,205.247c-0.957,0-1.913-0.102-2.842-0.29c-0.928-0.174-1.842-0.464-2.712-0.827
	c-0.87-0.363-1.711-0.812-2.507-1.334c-0.783-0.521-1.539-1.131-2.206-1.798s-1.276-1.407-1.797-2.204
	c-0.522-0.783-0.972-1.624-1.334-2.509c-0.363-0.87-0.638-1.782-0.827-2.71c-0.189-0.93-0.276-1.887-0.276-2.828
	c0-0.943,0.088-1.901,0.276-2.828c0.187-0.927,0.464-1.843,0.827-2.712c0.363-0.885,0.812-1.724,1.334-2.507
	c0.521-0.799,1.13-1.539,1.797-2.206s1.421-1.276,2.206-1.798c0.798-0.521,1.639-0.972,2.507-1.334
	c0.871-0.363,1.784-0.653,2.712-0.841c1.871-0.363,3.799-0.363,5.67,0c0.928,0.189,1.843,0.479,2.712,0.841
	c0.869,0.363,1.711,0.813,2.509,1.334c0.782,0.522,1.537,1.131,2.204,1.798c2.697,2.697,4.234,6.438,4.234,10.252
	c0,0.941-0.087,1.9-0.274,2.828c-0.19,0.928-0.464,1.842-0.827,2.71c-0.363,0.885-0.814,1.726-1.334,2.509
	c-0.522,0.798-1.131,1.537-1.798,2.204s-1.421,1.278-2.204,1.798c-0.799,0.522-1.64,0.972-2.509,1.334
	c-0.869,0.363-1.784,0.653-2.712,0.827C326.011,205.145,325.068,205.247,324.124,205.247z"/>
</svg>