<?xml version="1.0" encoding="UTF-8" standalone="no"?>
<!DOCTYPE svg PUBLIC "-//W3C//DTD SVG 1.1//EN" "http://www.w3.org/Graphics/SVG/1.1/DTD/svg11.dtd">
<svg width="100%" height="100%" viewBox="0 0 35 45" version="1.1" xmlns="http://www.w3.org/2000/svg" xmlns:xlink="http://www.w3.org/1999/xlink" xml:space="preserve" xmlns:serif="http://www.serif.com/" style="fill-rule:evenodd;clip-rule:evenodd;stroke-linecap:round;stroke-linejoin:round;stroke-miterlimit:1.5;">
    <g transform="matrix(0.8125,0,0,1.16762,3.28125,-7.18472)">
        <path d="M34.731,19L31.038,42.864L4.423,42.864L0.269,19L34.731,19Z" style="fill:rgb(227,59,38);"/>
    </g>
    <g transform="matrix(-0.941176,5.18731e-16,-1.18696e-15,-2.12696,336.559,734.126)">
        <path d="M356,344.148L322,344.148L327.62,325L350.38,325L356,344.148Z" style="fill:none;stroke:rgb(24,40,65);stroke-width:1.52px;"/>
    </g>
    <g transform="matrix(0.431353,0,0,1,4.25568,-1)">
        <path d="M6.072,37.339L11,37.339" style="fill:none;stroke:rgb(24,40,65);stroke-width:1.3px;"/>
    </g>
    <g transform="matrix(1.24289,0,0,1,-0.671805,-2.12018)">
        <path d="M4.564,25.731L11,25.731" style="fill:none;stroke:rgb(24,40,65);stroke-width:0.89px;"/>
    </g>
    <g transform="matrix(0.757177,0,0,1,0.671616,-1)">
        <path d="M2.766,11.883L11,11.883" style="fill:none;stroke:rgb(24,40,65);stroke-width:1.13px;"/>
    </g>
</svg>
