<?xml version="1.0" encoding="UTF-8" standalone="no"?>
<!DOCTYPE svg PUBLIC "-//W3C//DTD SVG 1.1//EN" "http://www.w3.org/Graphics/SVG/1.1/DTD/svg11.dtd">
<svg width="100%" height="100%" viewBox="0 0 95 95" version="1.1" xmlns="http://www.w3.org/2000/svg" xmlns:xlink="http://www.w3.org/1999/xlink" xml:space="preserve" xmlns:serif="http://www.serif.com/" style="fill-rule:evenodd;clip-rule:evenodd;stroke-linejoin:round;stroke-miterlimit:2;">
    <g id="play" transform="matrix(5.37829,0,0,5.28573,-13.9343,-16.9019)">
        <path d="M7.999,5.137L7.999,19.137L18.999,12.137L7.999,5.137Z" style="fill:rgb(227,59,38);fill-rule:nonzero;"/>
        <path d="M7.999,5.137L18.999,12.137L7.999,19.137L7.999,5.137ZM8.387,5.848L8.387,18.425L18.269,12.137L8.387,5.848Z" style="fill:rgb(24,40,65);"/>
    </g>
    <g transform="matrix(1.05128,0,0,1.05128,-744.365,-409.006)">
        <path d="M753,389.055C777.806,389.055 797.945,409.194 797.945,434C797.945,458.806 777.806,478.945 753,478.945C728.194,478.945 708.055,458.806 708.055,434C708.055,409.194 728.194,389.055 753,389.055ZM753,395C731.475,395 714,412.475 714,434C714,455.525 731.475,473 753,473C774.525,473 792,455.525 792,434C792,412.475 774.525,395 753,395Z" style="fill:rgb(24,40,65);"/>
    </g>
</svg>
