<?xml version="1.0" encoding="UTF-8" standalone="no"?>
<!DOCTYPE svg PUBLIC "-//W3C//DTD SVG 1.1//EN" "http://www.w3.org/Graphics/SVG/1.1/DTD/svg11.dtd">
<svg width="70px" height="70px" viewBox="0 0 30 59" version="1.1" xmlns="http://www.w3.org/2000/svg" xmlns:xlink="http://www.w3.org/1999/xlink" xml:space="preserve" xmlns:serif="http://www.serif.com/" style="fill-rule:evenodd;clip-rule:evenodd;stroke-linejoin:round;stroke-miterlimit:2;">
    <g id="thermometer" transform="matrix(2.93399,0,0,2.93399,-20.5379,-5.86803)">
        <path d="M17,17C17,19.761 14.761,22 12,22C9.239,22 7,19.761 7,17C7,15.364 7.786,13.912 9,13L9,5C9,3.343 10.343,2 12,2C13.657,2 15,3.343 15,5L15,13C16.214,13.912 17,15.364 17,17ZM16.091,17C16.091,15.661 15.448,14.473 14.454,13.726C14.226,13.555 14.091,13.285 14.091,13L14.091,5C14.091,3.845 13.155,2.909 12,2.909C10.845,2.909 9.909,3.845 9.909,5L9.909,13C9.909,13.285 9.774,13.555 9.546,13.726C8.552,14.473 7.909,15.661 7.909,17C7.909,19.259 9.741,21.091 12,21.091C14.259,21.091 16.091,19.259 16.091,17Z" style="fill:rgb(24,40,65);"/>
    </g>
    <g transform="matrix(1.27832,0,0,1.27832,0.608386,-8.40142)">
        <circle cx="11" cy="41" r="6" style="fill:rgb(227,59,38);"/>
    </g>
    <g transform="matrix(0.923077,0,0,0.9,1.28532,5.7)">
        <path d="M14.502,7C15.882,7 17,8.147 17,9.562C17,16.821 17,37 17,37L12,37L12,9.562C12,8.147 13.118,7 14.498,7C14.499,7 14.501,7 14.502,7Z" style="fill:rgb(227,59,38);"/>
    </g>
</svg>
